<?xml version="1.0" encoding="UTF-8"?>
<!DOCTYPE svg PUBLIC "-//W3C//DTD SVG 1.1//EN" "http://www.w3.org/Graphics/SVG/1.1/DTD/svg11.dtd">
<svg version="1.1" xmlns="http://www.w3.org/2000/svg" xmlns:xlink="http://www.w3.org/1999/xlink" x="0" y="0" width="1024" height="1024" viewBox="0, 0, 1024, 1024">
  <g id="Background">
    <rect x="0" y="0" width="1024" height="1024" fill="#383838"/>
  </g>
  <g id="Layer_1">
    <path d="M658.179,529.21 C655.815,521.151 648.347,491.11 642.441,475.505 C636.527,459.899 626.32,440.009 618.762,425.178 C611.204,410.346 600.457,391.05 592.036,376.63 C583.608,362.211 571.96,343.145 562.578,329.072 C553.204,314.999 540.018,296.246 529.503,282.799 C518.981,269.344 504.331,251.068 492.435,239.41 C480.539,227.751 463.863,212.944 450.188,205.059 C436.514,197.166 416.573,189.989 401.27,186.817 C385.959,183.645 363.736,182.178 348.148,183.892 C332.552,185.614 311.583,191.604 297.33,198.261 C283.086,204.919 265.103,217.006 253.17,228.27 C241.244,239.533 226.024,258.781 217.805,273.356 C209.587,287.932 202.12,308.885 198.375,325.438 C194.63,341.983 193.691,365.787 192.851,383.683 C192.003,401.588 192.746,426.463 192.746,444.755 C192.746,463.055 192.836,487.361 192.866,505.636 C192.896,523.912 192.948,548.292 192.941,566.568 C192.933,584.851 192.851,609.248 192.821,627.515 C192.791,645.782 192.4,670.221 192.723,688.372 C193.046,706.516 192.048,731.531 194.99,748.504 C197.932,765.478 203.561,788.557 212.342,801.517 C221.123,814.486 239.48,829.112 253.53,834.937 C267.572,840.754 291.109,842.822 305.984,840.342 C320.867,837.862 342.256,829.301 352.726,818.417 C363.188,807.524 372.3,784.058 375.767,767.752 C379.234,751.446 377.568,726.719 375.857,709.713 C374.138,692.706 368.134,670.888 364.337,654.352 C360.539,637.823 353.732,616.376 350.542,599.501 C347.345,582.635 343.502,559.383 343.052,541.882 C342.602,524.39 341.971,498.031 347.555,482.862 C353.131,467.685 367.631,448.364 380.255,440.726 C392.871,433.096 417.473,428.885 431.681,431.959 C445.888,435.032 466.084,448.668 474.978,461.217 C483.879,473.774 487.947,498.682 490.994,515.631 C494.041,532.588 493.816,556.631 495.287,574.214 C496.758,591.797 498.101,615.791 500.803,632.838 C503.505,649.894 508.248,671.926 513.292,687.895 C518.343,703.863 526.388,724.626 534.456,739.284 C542.524,753.943 555.719,773.717 567.066,785.607 C578.414,797.505 596.089,811.586 610.116,818.557 C624.143,825.527 645.233,830.323 660.573,832.07 C675.914,833.816 697.251,833.24 712.374,830.199 C727.49,827.151 748.204,820.098 761.375,811.784 C774.539,803.462 790.908,787.947 800.162,774.731 C809.424,761.523 818.377,739.894 823.09,723.712 C827.796,707.521 830.19,684.442 831.579,666.81 C832.96,649.177 832.209,624.376 832.314,606.15 C832.427,587.924 832.314,563.56 832.307,545.285 C832.299,527.01 832.262,502.613 832.269,484.321 C832.277,466.021 832.57,441.475 832.382,423.315 C832.194,405.147 832.997,380.66 831.031,363.225 C829.072,345.798 826.04,322.002 819.293,307.105 C812.546,292.217 798.594,272.639 786.06,263.955 C773.526,255.271 750.846,249.47 735.715,249.215 C720.585,248.959 692.778,260.297 685.198,262.249" fill-opacity="0" stroke="#EEE4D0" stroke-width="69.5" stroke-linecap="round" stroke-linejoin="round"/>
  </g>
</svg>
